<?xml version="1.0" encoding="utf-8"?>
<!-- Generator: Adobe Illustrator 26.0.2, SVG Export Plug-In . SVG Version: 6.00 Build 0)  -->
<svg version="1.1" id="Layer_1" xmlns="http://www.w3.org/2000/svg" xmlns:xlink="http://www.w3.org/1999/xlink" x="0px" y="0px"
	 viewBox="0 0 901.8 175.9" style="enable-background:new 0 0 901.8 175.9;" xml:space="preserve">
<style type="text/css">
	.st0{fill:#A7A8A9;}
	.st1{fill:#00B5E2;}
</style>
<g>
	<path class="st0" d="M227.2,111.3c-2.3-8.1-7.9-15.1-11.6-12.7c-6.7-13.2-16.2-24.7-27.7-33.7l13.6-33.4c6.5,0.6,12.9-2.8,15.8-9
		c3.7-7.9,0.3-17.3-7.6-21c-7.9-3.7-17.3-0.3-21,7.6c-2.9,6.2-1.3,13.3,3.3,17.9l-15.8,29.9c-14.9-8.6-32.1-13.7-50.5-13.7h-8.4
		v132.7h109.2v-29.6C234.3,144.8,229.5,119.4,227.2,111.3L227.2,111.3z M179.1,117.9c0,0.1,0,0.1,0,0.2c0,3.1-0.7,6.1-1.8,8.8
		c-3.6,8.9-12.3,15.2-22.5,15.2c-13.4,0-24.3-10.9-24.3-24.3c0-13.4,10.9-24.3,24.3-24.3c13.4,0,24.3,10.9,24.3,24.3
		C179.1,117.8,179.1,117.8,179.1,117.9L179.1,117.9z"/>
	<path class="st1" d="M3.6,111.3c2.3-8.1,7.9-15.1,11.6-12.7c6.7-13.2,16.2-24.7,27.7-33.7L29.3,31.4c-6.5,0.6-12.9-2.8-15.8-9
		c-3.7-7.9-0.3-17.3,7.6-21C29-2.2,38.4,1.2,42,9.1c2.9,6.2,1.3,13.3-3.3,17.9l15.8,29.9c14.9-8.6,32.1-13.7,50.5-13.7h8.4v132.7
		H4.3v-29.6C-3.5,144.8,1.3,119.4,3.6,111.3L3.6,111.3z M51.6,117.9c0,0.1,0,0.1,0,0.2c0,3.1,0.7,6.1,1.8,8.8
		c3.6,8.9,12.3,15.2,22.5,15.2c13.4,0,24.3-10.9,24.3-24.3c0-13.4-10.9-24.3-24.3-24.3c-13.4,0-24.3,10.9-24.3,24.3
		C51.6,117.8,51.6,117.8,51.6,117.9L51.6,117.9z"/>
	<path class="st1" d="M758.8,96.6V82.1c0-14.5-10.2-22.7-27.7-22.7H701v115.3h29.8c17.5,0,28.7-8.2,28.7-22.7V133
		c0-8.9-3.5-16.6-13.5-18.3C755.2,113.5,758.8,104.8,758.8,96.6L758.8,96.6z M720.1,75.8h10.7c5.4,0,8.9,2.8,8.9,8.9V98
		c0,6.1-3.5,8.9-8.9,8.9h-10.7V75.8L720.1,75.8z M740.4,132v17.3c0,6.1-3.5,8.9-8.9,8.9h-11.4v-35.1h11.4
		C736.9,123.1,740.4,125.9,740.4,132L740.4,132z M774.6,82.4v69.2c0,17.5,11.5,24.4,29,24.4h1.3c17.5,0,29-6.9,29-24.4V82.4
		c0-17.5-11.5-24.4-29-24.4h-1.3C786.2,58,774.6,64.8,774.6,82.4L774.6,82.4z M793.7,148.6V85.4c0-8.2,4.3-10.5,10.5-10.5
		c6.3,0,10.5,2.3,10.5,10.5v63.2c0,8.2-4.3,10.5-10.5,10.5C798,159.1,793.7,156.8,793.7,148.6L793.7,148.6z M901.8,59.3h-57.6v16.8
		h19.3v98.5h19.1V76.1h19.3V59.3L901.8,59.3z"/>
	<path class="st0" d="M349,100.5V81.7c0-17.1-12.5-23.7-28.3-23.7h-0.3c-15.8,0-28.3,6.6-28.3,23.7v15.2c0,12,6.4,17.3,17.6,23.7
		l13.3,7.6c5.8,3.1,7.6,6.1,7.6,12v9.1c0,7.1-4.1,10.2-9.9,10.2c-5.8,0-9.9-3.1-9.9-10.2v-17.5H292v20.1c0,18,11,24,28.5,24h0.3
		c17.5,0,28.5-6.3,28.5-24v-16.6c0-12.4-6.6-17.5-17.6-23.7l-13.5-7.6c-5.4-3.1-7.4-5.8-7.4-11.7v-7.9c0-7.2,4.1-9.9,9.7-9.9
		c5.6,0,9.7,2.6,9.7,9.9v16.1H349L349,100.5z"/>
	<path class="st0" d="M423.6,105.6V83.7c0-17.5-11.5-24.4-29-24.4h-29.8v115.3h19.1V130h10.7C412,130,423.6,123.1,423.6,105.6
		L423.6,105.6z M404.5,102.6c0,8.2-4.3,10.5-10.5,10.5h-10V76.1h10c6.3,0,10.5,2.3,10.5,10.5V102.6L404.5,102.6z"/>
	<path class="st0" d="M496.2,104.3V83.7c0-17.5-11.5-24.4-29-24.4h-29.8v115.3h19.1v-46h9.6l14.7,46h19.4l-16.5-48.9
		C491.6,122.2,496.2,115.3,496.2,104.3L496.2,104.3z M477.1,101.7c0,8.2-4.3,10.5-10.5,10.5h-10V76.1h10c6.3,0,10.5,2.3,10.5,10.5
		V101.7L477.1,101.7z"/>
	<polygon class="st0" points="527.6,174.6 527.6,59.3 508.5,59.3 508.5,136.6 521.6,174.6 527.6,174.6 	"/>
	<polygon class="st0" points="563.8,174.6 563.8,99.7 589,174.6 607.1,174.6 607.1,59.3 589.7,59.3 589.7,130.6 565.5,59.3 
		546.4,59.3 546.4,174.6 563.8,174.6 	"/>
	<path class="st0" d="M683.9,115.3h-30.3v16.1h11.2v17.1c0,8.2-4.3,10.5-10.5,10.5c-6.3,0-10.5-2.3-10.5-10.5V85.4
		c0-8.2,4.3-10.5,10.5-10.5c6.3,0,10.5,2.3,10.5,10.5v13.5h19.1V82.4c0-17.1-11.5-24.4-29-24.4h-1.3c-17.5,0-29,7.2-29,24.4v69.2
		c0,18,11.5,24.4,29,24.4h1.3c17.5,0,29-6.6,29-24.4V115.3L683.9,115.3z"/>
</g>
</svg>
