<?xml version="1.0" encoding="utf-8"?>
<!-- Generator: Adobe Illustrator 25.0.0, SVG Export Plug-In . SVG Version: 6.00 Build 0)  -->
<svg version="1.1" id="Layer_1" xmlns="http://www.w3.org/2000/svg" xmlns:xlink="http://www.w3.org/1999/xlink" x="0px" y="0px"
	 viewBox="0 0 576 439.1" style="enable-background:new 0 0 576 439.1;" xml:space="preserve">
<style type="text/css">
	.st0{fill:#0099FF;}
	.st1{fill:#000029;}
</style>
<g>
	<path class="st0" d="M567.1,277.8c-5.8-20.2-19.8-37.6-29-31.7c-16.7-32.9-40.4-61.6-69.1-84.2l34-83.4
		c16.1,1.6,32.2-6.9,39.5-22.4c9.2-19.7,0.7-43.1-19-52.3c-19.7-9.2-43.1-0.7-52.3,19c-7.2,15.5-3.4,33.3,8.2,44.6l-39.5,74.7
		c-37.1-21.6-80.1-34.1-126.2-34.1h-20.9v331.2h272.6v-73.9C584.8,361.3,572.9,297.9,567.1,277.8L567.1,277.8z M447.1,294.2
		c0,0.2,0,0.3,0,0.4c0,7.8-1.6,15.3-4.5,22c-9,22.2-30.7,37.8-56.2,37.8c-33.5,0-60.7-27.2-60.7-60.7s27.2-60.7,60.7-60.7
		c33.5,0,60.7,27.2,60.7,60.7C447.1,294,447.1,294.1,447.1,294.2L447.1,294.2z"/>
	<path class="st1" d="M8.9,277.8c5.8-20.2,19.8-37.6,29-31.7c16.7-32.9,40.4-61.6,69.1-84.2l-34-83.4C56.9,80,40.8,71.6,33.6,56
		c-9.2-19.7-0.7-43.1,19-52.3c19.7-9.2,43.1-0.7,52.3,19c7.2,15.5,3.4,33.3-8.2,44.6l39.5,74.7c37.1-21.6,80.1-34.1,126.2-34.1h20.9
		v331.2H10.7v-73.9C-8.8,361.3,3.1,297.9,8.9,277.8L8.9,277.8z M128.9,294.2c0,0.2,0,0.3,0,0.4c0,7.8,1.6,15.3,4.5,22
		c9,22.2,30.7,37.8,56.2,37.8c33.5,0,60.7-27.2,60.7-60.7s-27.2-60.7-60.7-60.7c-33.5,0-60.7,27.2-60.7,60.7
		C128.9,294,128.9,294.1,128.9,294.2L128.9,294.2z"/>
</g>
</svg>
