<?xml version="1.0" encoding="utf-8"?>
<!-- Generator: Adobe Illustrator 14.0.0, SVG Export Plug-In . SVG Version: 
	6.00 Build 43363) -->
<svg version="1.1" id="Layer_1" xmlns="http://www.w3.org/2000/svg"
	height="600px" width="600px" xml:space="preserve">
	<rect x="0" y="0" width="240" height="240" fill="black" />
	<g transform="translate(-380, -270)">
	<path fill="#FFFFFF"
	d="M409.756,322.881l-19.507,155.563l65.542,0.011l27.277-37.456l-0.415-0.425
  c-1.456,0.627-3.733,0.83-7.467,0.83c-21.995,0-48.332-18.051-48.332-52.066c0-35.052,27.177-58.282,59.522-58.282
  c19.295,0,37.142,6.845,48.342,20.119c10.158,10.37,12.859,24.682,12.859,38.163c-0.212,16.391-6.85,30.08-14.73,41.897
  l-32.063,47.239l44.78,0.011L605.4,291.986L409.756,322.881z M508.383,386.647c0-14.114-11.211-21.161-21.166-21.161
  c-11.201,0-21.156,8.296-21.156,20.533c0,9.956,7.254,20.954,21.156,20.954C500.076,406.974,508.383,397.433,508.383,386.647z" />
	
	</g>
</svg>
